<svg width="1200" height="675" viewBox="0 0 1200 675" fill="none" xmlns="http://www.w3.org/2000/svg">
  <defs>
    <linearGradient id="bg" x1="0" y1="0" x2="1200" y2="675" gradientUnits="userSpaceOnUse">
      <stop stop-color="#0B1220"/>
      <stop offset="1" stop-color="#1A2E1F"/>
    </linearGradient>
    <linearGradient id="score" x1="0" y1="0" x2="1" y2="1">
      <stop offset="0" stop-color="#22D3EE"/>
      <stop offset="1" stop-color="#34D399"/>
    </linearGradient>
  </defs>

  <rect width="1200" height="675" fill="url(#bg)"/>
  <rect x="80" y="80" width="1040" height="515" rx="24" fill="#0F172A" stroke="#334155"/>

  <text x="130" y="168" fill="#E2E8F0" font-family="Arial, sans-serif" font-size="40" font-weight="700">HireSense Recruitment Assistant</text>
  <text x="130" y="214" fill="#94A3B8" font-family="Arial, sans-serif" font-size="24">AI resume screening, matching, and candidate ranking</text>

  <rect x="130" y="262" width="420" height="280" rx="18" fill="#0B1220" stroke="#1E293B"/>
  <text x="160" y="304" fill="#38BDF8" font-family="Consolas, monospace" font-size="20">Resume Features</text>
  <text x="160" y="344" fill="#CBD5E1" font-family="Consolas, monospace" font-size="19">Skills: Python, NLP, SQL</text>
  <text x="160" y="378" fill="#CBD5E1" font-family="Consolas, monospace" font-size="19">Experience: 2+ years</text>
  <text x="160" y="412" fill="#CBD5E1" font-family="Consolas, monospace" font-size="19">Domain: AI / ML</text>
  <text x="160" y="446" fill="#CBD5E1" font-family="Consolas, monospace" font-size="19">Education: B.Tech CSE</text>

  <rect x="580" y="262" width="490" height="280" rx="18" fill="#0B1220" stroke="#1E293B"/>
  <text x="610" y="304" fill="#34D399" font-family="Arial, sans-serif" font-size="24" font-weight="700">Top Candidates</text>

  <rect x="610" y="330" width="420" height="42" rx="10" fill="#111827" stroke="#334155"/>
  <rect x="610" y="382" width="350" height="42" rx="10" fill="#111827" stroke="#334155"/>
  <rect x="610" y="434" width="280" height="42" rx="10" fill="#111827" stroke="#334155"/>

  <rect x="960" y="334" width="70" height="34" rx="8" fill="url(#score)"/>
  <rect x="900" y="386" width="60" height="34" rx="8" fill="url(#score)" opacity="0.8"/>
  <rect x="840" y="438" width="50" height="34" rx="8" fill="url(#score)" opacity="0.65"/>

  <text x="980" y="357" fill="#052E2B" font-family="Arial, sans-serif" font-size="16" font-weight="700">95</text>
  <text x="919" y="409" fill="#052E2B" font-family="Arial, sans-serif" font-size="16" font-weight="700">88</text>
  <text x="857" y="461" fill="#052E2B" font-family="Arial, sans-serif" font-size="16" font-weight="700">81</text>
</svg>
